<svg width="85" height="16" viewBox="0 0 85 16" fill="none" xmlns="http://www.w3.org/2000/svg">
<path d="M18.875 2.59375C18.875 2.6875 19.4688 5.25 17.75 7.6875C16.5625 9.4375 14.5938 10.6562 11.875 11.375C11.3125 11.5312 10.9062 12.0625 10.9062 12.6562C10.9062 13.4062 11.5 14 12.25 14H12.4062C13.2188 14 13.9062 14.6875 13.9062 15.5C13.9062 15.7812 13.7188 16 13.4375 16H6.46875C6.21875 16 6 15.7812 6 15.5C6 14.6875 6.65625 14 7.5 14H7.625C8.375 14 9 13.4062 8.96875 12.6562C8.96875 12.0625 8.59375 11.5312 8 11.375C5.28125 10.6562 3.3125 9.4375 2.15625 7.6875C0.5 5.25 1.09375 2.6875 1.09375 2.59375C1.1875 2.25 1.5 2 1.84375 2H5C4.96875 1.625 4.96875 1.28125 5 0.96875C5 0.4375 5.4375 0 6 0H13.9688C14.5312 0 14.9688 0.4375 14.9688 0.96875C15 1.28125 15 1.625 14.9688 2H18.125C18.4688 2 18.7812 2.25 18.875 2.59375ZM3.40625 6.875C4.125 7.96875 5.28125 8.8125 6.8125 9.4375C5.65625 7.625 5.1875 5.375 5 3.5H2.5C2.46875 4.25 2.53125 5.59375 3.40625 6.875ZM16.5625 6.875C17.4375 5.59375 17.5 4.25 17.4688 3.5H14.9688C14.7812 5.375 14.3125 7.625 13.1562 9.4375C14.6875 8.8125 15.8438 7.96875 16.5625 6.875Z" fill="#080808" fill-opacity="0.25"/>
<path d="M31.5386 4.48926L28.7773 12.5H27.1079L30.5864 3.25781H31.6528L31.5386 4.48926ZM33.8491 12.5L31.0815 4.48926L30.9609 3.25781H32.0337L35.5249 12.5H33.8491ZM33.7158 9.07227V10.3354H28.6885V9.07227H33.7158ZM40.5967 11.0781V2.75H42.1328V12.5H40.7427L40.5967 11.0781ZM36.1279 9.14209V9.00879C36.1279 8.48828 36.1893 8.01432 36.312 7.58691C36.4347 7.15527 36.6125 6.78499 36.8452 6.47607C37.078 6.16292 37.3615 5.92383 37.6958 5.75879C38.0301 5.58952 38.4067 5.50488 38.8257 5.50488C39.2404 5.50488 39.6043 5.58529 39.9175 5.74609C40.2306 5.9069 40.4972 6.13753 40.7173 6.43799C40.9373 6.73421 41.113 7.08968 41.2441 7.50439C41.3753 7.91488 41.4684 8.37191 41.5234 8.87549V9.30078C41.4684 9.79167 41.3753 10.2402 41.2441 10.6465C41.113 11.0527 40.9373 11.404 40.7173 11.7002C40.4972 11.9964 40.2285 12.2249 39.9111 12.3857C39.598 12.5465 39.2319 12.627 38.813 12.627C38.3983 12.627 38.0238 12.5402 37.6895 12.3667C37.3594 12.1932 37.078 11.9499 36.8452 11.6367C36.6125 11.3236 36.4347 10.9554 36.312 10.5322C36.1893 10.1048 36.1279 9.64144 36.1279 9.14209ZM37.6577 9.00879V9.14209C37.6577 9.45524 37.6852 9.74723 37.7402 10.0181C37.7995 10.2889 37.8905 10.528 38.0132 10.7354C38.1359 10.9385 38.2946 11.0993 38.4893 11.2178C38.6882 11.332 38.9251 11.3892 39.2002 11.3892C39.5472 11.3892 39.8328 11.313 40.0571 11.1606C40.2814 11.0083 40.457 10.8031 40.584 10.5449C40.7152 10.2826 40.804 9.99056 40.8506 9.66895V8.52002C40.8252 8.27035 40.7723 8.0376 40.6919 7.82178C40.6157 7.60596 40.512 7.41764 40.3809 7.25684C40.2497 7.0918 40.0868 6.96484 39.8921 6.87598C39.7017 6.78288 39.4753 6.73633 39.2129 6.73633C38.9336 6.73633 38.6966 6.79557 38.502 6.91406C38.3073 7.03255 38.1465 7.19548 38.0195 7.40283C37.8968 7.61019 37.8058 7.8514 37.7466 8.12646C37.6873 8.40153 37.6577 8.69564 37.6577 9.00879ZM45.9668 11.2876L47.6489 5.63184H49.2358L46.8491 12.5H45.8589L45.9668 11.2876ZM44.6782 5.63184L46.3921 11.313L46.4746 12.5H45.4844L43.085 5.63184H44.6782ZM53.9521 11.1226V7.84717C53.9521 7.60173 53.9077 7.39014 53.8188 7.2124C53.73 7.03467 53.5946 6.89714 53.4126 6.7998C53.2349 6.70247 53.0106 6.65381 52.7397 6.65381C52.4901 6.65381 52.2743 6.69613 52.0923 6.78076C51.9103 6.8654 51.7686 6.97965 51.667 7.12354C51.5654 7.26742 51.5146 7.43034 51.5146 7.6123H49.9912C49.9912 7.34147 50.0568 7.0791 50.188 6.8252C50.3192 6.57129 50.5096 6.34489 50.7593 6.146C51.009 5.9471 51.3073 5.79053 51.6543 5.67627C52.0013 5.56201 52.3906 5.50488 52.8223 5.50488C53.3385 5.50488 53.7956 5.59163 54.1934 5.76514C54.5954 5.93864 54.9106 6.20101 55.1392 6.55225C55.3719 6.89925 55.4883 7.33512 55.4883 7.85986V10.9131C55.4883 11.2262 55.5094 11.5076 55.5518 11.7573C55.5983 12.0028 55.6639 12.2165 55.7485 12.3984V12.5H54.1807C54.1087 12.335 54.0516 12.1255 54.0093 11.8716C53.9712 11.6134 53.9521 11.3638 53.9521 11.1226ZM54.1743 8.32324L54.187 9.26904H53.0889C52.8053 9.26904 52.5557 9.29655 52.3398 9.35156C52.124 9.40234 51.9442 9.47852 51.8003 9.58008C51.6564 9.68164 51.5485 9.80436 51.4766 9.94824C51.4046 10.0921 51.3687 10.255 51.3687 10.437C51.3687 10.619 51.411 10.7861 51.4956 10.9385C51.5802 11.0866 51.703 11.203 51.8638 11.2876C52.0288 11.3722 52.2277 11.4146 52.4604 11.4146C52.7736 11.4146 53.0465 11.3511 53.2793 11.2241C53.5163 11.0929 53.7025 10.9342 53.8379 10.748C53.9733 10.5576 54.0452 10.3778 54.0537 10.2085L54.5488 10.8877C54.498 11.0612 54.4113 11.2474 54.2886 11.4463C54.1659 11.6452 54.005 11.8356 53.8062 12.0176C53.6115 12.1953 53.3766 12.3413 53.1016 12.4556C52.8307 12.5698 52.5176 12.627 52.1621 12.627C51.7135 12.627 51.3136 12.5381 50.9624 12.3604C50.6112 12.1784 50.3361 11.9351 50.1372 11.6304C49.9383 11.3215 49.8389 10.9723 49.8389 10.583C49.8389 10.2191 49.9066 9.89746 50.042 9.61816C50.1816 9.33464 50.3848 9.09766 50.6514 8.90723C50.9222 8.7168 51.2523 8.57292 51.6416 8.47559C52.0309 8.37402 52.4753 8.32324 52.9746 8.32324H54.1743ZM58.605 7.09814V12.5H57.0752V5.63184H58.5161L58.605 7.09814ZM58.332 8.81201L57.8369 8.80566C57.8411 8.31901 57.9089 7.87256 58.04 7.46631C58.1755 7.06006 58.3617 6.71094 58.5986 6.41895C58.8398 6.12695 59.1276 5.90267 59.4619 5.74609C59.7962 5.58529 60.1686 5.50488 60.5791 5.50488C60.9092 5.50488 61.2075 5.55143 61.4741 5.64453C61.745 5.7334 61.9756 5.87939 62.166 6.08252C62.3607 6.28564 62.5088 6.55013 62.6104 6.87598C62.7119 7.19759 62.7627 7.59326 62.7627 8.06299V12.5H61.2266V8.05664C61.2266 7.72656 61.1779 7.46631 61.0806 7.27588C60.9875 7.08122 60.8499 6.94368 60.668 6.86328C60.4902 6.77865 60.2681 6.73633 60.0015 6.73633C59.7391 6.73633 59.5042 6.79134 59.2969 6.90137C59.0895 7.01139 58.9139 7.16162 58.77 7.35205C58.6304 7.54248 58.5225 7.76253 58.4463 8.01221C58.3701 8.26188 58.332 8.52848 58.332 8.81201ZM67.1299 11.4082C67.3796 11.4082 67.6038 11.3595 67.8027 11.2622C68.0059 11.1606 68.1688 11.021 68.2915 10.8433C68.4185 10.6655 68.4883 10.4603 68.501 10.2275H69.9419C69.9334 10.6719 69.8022 11.076 69.5483 11.4399C69.2944 11.8039 68.958 12.0938 68.5391 12.3096C68.1201 12.5212 67.6567 12.627 67.1489 12.627C66.6242 12.627 66.1672 12.5381 65.7778 12.3604C65.3885 12.1784 65.0648 11.9287 64.8066 11.6113C64.5485 11.2939 64.3538 10.9279 64.2227 10.5132C64.0957 10.0985 64.0322 9.65413 64.0322 9.18018V8.95801C64.0322 8.48405 64.0957 8.03971 64.2227 7.625C64.3538 7.20605 64.5485 6.83789 64.8066 6.52051C65.0648 6.20312 65.3885 5.95557 65.7778 5.77783C66.1672 5.59587 66.6221 5.50488 67.1426 5.50488C67.6927 5.50488 68.1751 5.61491 68.5898 5.83496C69.0046 6.05078 69.3304 6.35335 69.5674 6.74268C69.8086 7.12777 69.9334 7.57633 69.9419 8.08838H68.501C68.4883 7.83447 68.4248 7.60596 68.3105 7.40283C68.2005 7.19548 68.0439 7.03044 67.8408 6.90771C67.6419 6.78499 67.4028 6.72363 67.1235 6.72363C66.8146 6.72363 66.5586 6.78711 66.3555 6.91406C66.1523 7.03678 65.9937 7.20605 65.8794 7.42188C65.7651 7.63346 65.6826 7.87256 65.6318 8.13916C65.5853 8.40153 65.562 8.67448 65.562 8.95801V9.18018C65.562 9.4637 65.5853 9.73877 65.6318 10.0054C65.6784 10.272 65.7588 10.5111 65.873 10.7227C65.9915 10.93 66.1523 11.0972 66.3555 11.2241C66.5586 11.3468 66.8167 11.4082 67.1299 11.4082ZM74.144 12.627C73.6362 12.627 73.1771 12.5444 72.7666 12.3794C72.3604 12.2101 72.0133 11.9753 71.7256 11.6748C71.4421 11.3743 71.2241 11.021 71.0718 10.6147C70.9194 10.2085 70.8433 9.77051 70.8433 9.30078V9.04688C70.8433 8.50944 70.9215 8.02279 71.0781 7.58691C71.2347 7.15104 71.4526 6.77865 71.7319 6.46973C72.0112 6.15658 72.3413 5.91748 72.7222 5.75244C73.103 5.5874 73.5156 5.50488 73.96 5.50488C74.4508 5.50488 74.8804 5.5874 75.2485 5.75244C75.6167 5.91748 75.9214 6.15023 76.1626 6.45068C76.408 6.74691 76.59 7.10026 76.7085 7.51074C76.8312 7.92122 76.8926 8.37402 76.8926 8.86914V9.52295H71.5859V8.4248H75.3818V8.3042C75.3734 8.02913 75.3184 7.771 75.2168 7.52979C75.1195 7.28857 74.9692 7.09391 74.7661 6.9458C74.563 6.79769 74.2922 6.72363 73.9536 6.72363C73.6997 6.72363 73.4733 6.77865 73.2744 6.88867C73.0798 6.99447 72.9168 7.14893 72.7856 7.35205C72.6545 7.55518 72.5529 7.80062 72.481 8.08838C72.4132 8.37191 72.3794 8.69141 72.3794 9.04688V9.30078C72.3794 9.60124 72.4196 9.88053 72.5 10.1387C72.5846 10.3926 72.7074 10.6147 72.8682 10.8052C73.029 10.9956 73.2236 11.1458 73.4521 11.2559C73.6807 11.3617 73.9409 11.4146 74.2329 11.4146C74.6011 11.4146 74.929 11.3405 75.2168 11.1924C75.5046 11.0443 75.7542 10.8348 75.9658 10.564L76.772 11.3447C76.6239 11.5605 76.4313 11.7679 76.1943 11.9668C75.9574 12.1615 75.6675 12.3201 75.3247 12.4429C74.9862 12.5656 74.5926 12.627 74.144 12.627ZM82.2754 11.0781V2.75H83.8115V12.5H82.4214L82.2754 11.0781ZM77.8066 9.14209V9.00879C77.8066 8.48828 77.868 8.01432 77.9907 7.58691C78.1134 7.15527 78.2912 6.78499 78.5239 6.47607C78.7567 6.16292 79.0402 5.92383 79.3745 5.75879C79.7088 5.58952 80.0854 5.50488 80.5044 5.50488C80.9191 5.50488 81.283 5.58529 81.5962 5.74609C81.9093 5.9069 82.1759 6.13753 82.396 6.43799C82.616 6.73421 82.7917 7.08968 82.9229 7.50439C83.054 7.91488 83.1471 8.37191 83.2021 8.87549V9.30078C83.1471 9.79167 83.054 10.2402 82.9229 10.6465C82.7917 11.0527 82.616 11.404 82.396 11.7002C82.1759 11.9964 81.9072 12.2249 81.5898 12.3857C81.2767 12.5465 80.9106 12.627 80.4917 12.627C80.077 12.627 79.7025 12.5402 79.3682 12.3667C79.0381 12.1932 78.7567 11.9499 78.5239 11.6367C78.2912 11.3236 78.1134 10.9554 77.9907 10.5322C77.868 10.1048 77.8066 9.64144 77.8066 9.14209ZM79.3364 9.00879V9.14209C79.3364 9.45524 79.3639 9.74723 79.4189 10.0181C79.4782 10.2889 79.5692 10.528 79.6919 10.7354C79.8146 10.9385 79.9733 11.0993 80.168 11.2178C80.3669 11.332 80.6038 11.3892 80.8789 11.3892C81.2259 11.3892 81.5116 11.313 81.7358 11.1606C81.9601 11.0083 82.1357 10.8031 82.2627 10.5449C82.3939 10.2826 82.4827 9.99056 82.5293 9.66895V8.52002C82.5039 8.27035 82.451 8.0376 82.3706 7.82178C82.2944 7.60596 82.1908 7.41764 82.0596 7.25684C81.9284 7.0918 81.7655 6.96484 81.5708 6.87598C81.3804 6.78288 81.154 6.73633 80.8916 6.73633C80.6123 6.73633 80.3753 6.79557 80.1807 6.91406C79.986 7.03255 79.8252 7.19548 79.6982 7.40283C79.5755 7.61019 79.4845 7.8514 79.4253 8.12646C79.366 8.40153 79.3364 8.69564 79.3364 9.00879Z" fill="#080808" fill-opacity="0.75"/>
</svg>
