<svg width="534" height="70" viewBox="0 0 534 70" fill="none" xmlns="http://www.w3.org/2000/svg">
<path d="M0 0H12.79V57.1H45.2V68.32H0.00997925V0H0Z" fill="#EFE9E6"/>
<path d="M90.3801 20.6401C93.7001 23.3401 95.36 27.5501 95.36 33.2801V68.3201H83.45V59.3401H82.9601C82.7001 60.5101 81.9201 61.8801 80.6201 63.4401C79.3201 65.0001 77.4301 66.3701 74.9601 67.5401C72.4901 68.7101 69.53 69.3001 66.08 69.3001C61.46 69.3001 57.5901 68.1501 54.4701 65.8401C51.3501 63.5301 49.79 60.0301 49.79 55.3501C49.79 50.6701 51.3501 47.2801 54.4701 45.2001C57.5901 43.1201 61.8201 41.7201 67.1601 41.0001L77.1201 39.6301C79.4001 39.3701 80.9301 38.9001 81.7101 38.2101C82.4901 37.5201 82.8801 36.4401 82.8801 34.9401V33.8701C82.8801 30.8801 82.1101 28.8001 80.5901 27.6201C79.0601 26.4501 76.8301 25.8601 73.9001 25.8601C67.6501 25.8601 64.5301 28.2701 64.5301 33.0801V33.6701L52.7201 33.8701V31.9201C52.7201 21.7101 59.94 16.6001 74.39 16.6001C81.74 16.6001 87.0801 17.9501 90.4001 20.6501L90.3801 20.6401ZM82.8701 44.5001C82.6101 45.0201 82.07 45.4101 81.26 45.6701C80.45 45.9301 79.1601 46.1901 77.4101 46.4501L70.1901 47.4301C67.4601 47.8901 65.4201 48.6001 64.0901 49.5801C62.7601 50.5601 62.0901 51.9601 62.0901 53.7801C62.0901 55.6001 62.77 57.2001 64.14 58.3701C65.51 59.5401 67.62 60.1301 70.48 60.1301C73.15 60.1301 75.41 59.6301 77.26 58.6201C79.11 57.6101 80.5101 56.3901 81.4601 54.9601C82.4101 53.5301 82.8801 52.1601 82.8801 50.8601V44.5201L82.8701 44.5001Z" fill="#EFE9E6"/>
<path d="M138.11 17.67V28.21C136.61 28.01 135.31 27.92 134.21 27.92C129.72 27.92 126.04 29.2999 123.18 32.0699C120.32 34.8399 118.89 39.05 118.89 44.71V68.33H106.4V17.58H118.89V29.68H119.18C120.09 25.97 121.82 22.96 124.35 20.65C126.89 18.34 130.17 17.1899 134.21 17.1899C135.64 17.1899 136.94 17.35 138.11 17.68V17.67Z" fill="#EFE9E6"/>
<path d="M180.86 20.6401C184.18 23.3401 185.84 27.5501 185.84 33.2801V68.3201H173.93V59.3401H173.44C173.18 60.5101 172.4 61.8801 171.1 63.4401C169.8 65.0001 167.91 66.3701 165.44 67.5401C162.97 68.7101 160.01 69.3001 156.56 69.3001C151.94 69.3001 148.07 68.1501 144.94 65.8401C141.82 63.5301 140.26 60.0301 140.26 55.3501C140.26 50.6701 141.82 47.2801 144.94 45.2001C148.06 43.1201 152.29 41.7201 157.63 41.0001L167.59 39.6301C169.87 39.3701 171.4 38.9001 172.18 38.2101C172.96 37.5301 173.35 36.4401 173.35 34.9401V33.8701C173.35 30.8801 172.58 28.8001 171.06 27.6201C169.53 26.4501 167.3 25.8601 164.38 25.8601C158.13 25.8601 155.01 28.2701 155.01 33.0801V33.6701L143.2 33.8701V31.9201C143.2 21.7101 150.42 16.6001 164.87 16.6001C172.22 16.6001 177.56 17.9501 180.88 20.6501L180.86 20.6401ZM173.34 44.5001C173.08 45.0201 172.54 45.4101 171.73 45.6701C170.91 45.9301 169.63 46.1901 167.87 46.4501L160.65 47.4301C157.92 47.8901 155.88 48.6001 154.55 49.5801C153.22 50.5601 152.55 51.9601 152.55 53.7801C152.55 55.6001 153.23 57.2001 154.6 58.3701C155.97 59.5401 158.08 60.1301 160.94 60.1301C163.61 60.1301 165.87 59.6301 167.72 58.6201C169.57 57.6101 170.97 56.3901 171.92 54.9601C172.86 53.5301 173.34 52.1601 173.34 50.8601V44.5201V44.5001Z" fill="#EFE9E6"/>
<path d="M198.13 0H203.4V43.04L241.17 0H247.61L222.82 28.7L249.86 68.33H243.52L218.92 32.7L203.4 50.46V68.32H198.13V0Z" fill="#EFE9E6"/>
<path d="M301.69 63.7401V68.33H298.76C292.9 68.33 290.46 65.79 290.66 59.94V58.1801C287.63 64.3301 281.68 68.92 271.63 68.92C261.58 68.92 254.16 63.55 254.16 54.77C254.16 45.5 260.99 40.03 273.68 40.03H290.47V35.7401C290.47 27.5401 285.2 22.66 275.93 22.66C267.54 22.66 262.27 26.66 261 32.71H256.02C257.29 23.73 264.8 18.26 276.13 18.26C288.53 18.26 295.46 24.6001 295.46 35.9301V58.97C295.46 62.78 296.92 63.75 299.85 63.75H301.7L301.69 63.7401ZM290.46 44.32H273.28C264.11 44.32 259.22 47.93 259.22 54.47C259.22 60.62 264.1 64.62 272.01 64.62C283.72 64.62 290.46 57.79 290.46 48.32V44.32Z" fill="#EFE9E6"/>
<path d="M312.03 23.43H302.66V18.84H312.03V4.97998H317.01V18.84H330.38V23.43H317.01V56.71C317.01 61.79 318.86 63.74 324.04 63.74H330.87V68.33H323.65C315.26 68.33 312.04 64.72 312.04 56.81V23.43H312.03Z" fill="#EFE9E6"/>
<path d="M335.07 43.2401C335.07 28.6001 344.34 18.25 357.91 18.25C371.48 18.25 380.26 26.84 380.75 41.58C380.75 42.17 380.65 42.95 380.65 43.63H340.24V44.51C340.44 56.03 347.37 64.42 358.39 64.42C366.49 64.42 373.03 59.6401 374.98 51.9301H380.06C377.91 61.8901 369.62 68.91 358.78 68.91C344.73 68.91 335.06 58.7601 335.06 43.2401H335.07ZM375.38 39.4301C374.6 28.6001 367.67 22.64 358.01 22.64C348.93 22.64 341.42 29.3701 340.64 39.4301H375.39H375.38Z" fill="#EFE9E6"/>
<path d="M413.44 18.8401V23.6201H409.83C398.21 23.6201 395.58 33.1801 395.58 43.2401V68.3201H390.6V18.8301H394.89L395.67 28.6901C397.72 23.2201 401.62 18.8301 410.8 18.8301H413.43L413.44 18.8401Z" fill="#EFE9E6"/>
<path d="M419.88 4.88013C419.88 2.83013 421.44 1.37012 423.39 1.37012C425.34 1.37012 426.9 2.83013 426.9 4.88013C426.9 6.93013 425.34 8.39011 423.39 8.39011C421.44 8.39011 419.88 6.93013 419.88 4.88013ZM420.86 18.8401H425.84V68.3301H420.86V18.8401Z" fill="#EFE9E6"/>
<path d="M479.91 40.6V68.3199H474.93V40.8C474.93 29.09 469.17 22.84 459.61 22.84C449.07 22.84 442.53 31.04 442.53 43.92V68.3199H437.55V18.83H441.84L442.62 29.3699C445.45 22.9299 451.31 18.24 460.38 18.24C471.6 18.24 479.9 24.97 479.9 40.59L479.91 40.6Z" fill="#EFE9E6"/>
<path d="M488.3 43.2401C488.3 28.6001 497.57 18.25 511.14 18.25C524.71 18.25 533.49 26.84 533.98 41.58C533.98 42.17 533.88 42.95 533.88 43.63H493.47V44.51C493.67 56.03 500.6 64.42 511.62 64.42C519.72 64.42 526.26 59.6401 528.21 51.9301H533.29C531.14 61.8901 522.85 68.91 512.01 68.91C497.96 68.91 488.29 58.7601 488.29 43.2401H488.3ZM528.61 39.4301C527.83 28.6001 520.9 22.64 511.24 22.64C502.16 22.64 494.65 29.3701 493.87 39.4301H528.62H528.61Z" fill="#EFE9E6"/>
</svg>
