<?xml version="1.0" encoding="UTF-8"?>
<svg id="Camada_9" data-name="Camada 9" xmlns="http://www.w3.org/2000/svg" viewBox="0 0 1080 1080">
  <defs>
    <style>
      .cls-1 {
        fill: #f4ece9;
      }
    </style>
  </defs>
  <path class="cls-1" d="m549.1,1073.77l-3.09-2.84c6.98-7.61,172.26-185.84,284.86-135.36l-1.72,3.83c-109.88-49.24-278.36,132.53-280.05,134.37Z"/>
  <path class="cls-1" d="m408.2,1062.97l-3.22-2.7c.62-.73,62.82-74.45,153.02-135.63,83.45-56.6,208.63-113.8,331.05-64.72l-1.56,3.9c-120.7-48.37-244.46,8.24-327.05,64.24-89.74,60.85-151.62,134.17-152.24,134.91Z"/>
  <path class="cls-1" d="m295.6,1017.63l-2.91-3.03c.95-.92,96.95-92.69,223.24-166.52,116.82-68.3,284.21-134.78,418.25-63.63l-1.97,3.71c-132.31-70.22-298.21-4.22-414.09,63.51-125.87,73.58-221.56,165.05-222.51,165.96Z"/>
  <path class="cls-1" d="m218.72,964.43l-2.94-3c.94-.92,95.49-92.67,234.42-171.32,128.34-72.66,321.9-148.69,515.18-98.32l-1.06,4.07c-191.89-50.02-384.32,25.61-511.96,97.86-138.48,78.38-232.7,169.8-233.64,170.71Z"/>
  <path class="cls-1" d="m147.04,891.38l-3.12-2.82c.96-1.06,96.97-106.45,209.81-147.13,2.11-.77,211.85-77.98,247.22-165.33l26.14-79.79,176.87,179.63-3,2.95-172.02-174.71-24.03,73.37c-36.13,89.21-241.03,164.67-249.74,167.84-111.84,40.32-207.17,144.94-208.12,145.99Z"/>
  <path class="cls-1" d="m95.79,812.26l-2.4-3.45c4.46-3.1,445.78-310.64,452.07-383.45l.72-8.39,62.66,146.86-3.87,1.65-56.79-133.12c-28.2,84.29-434.63,367.54-452.39,379.89Z"/>
  <path class="cls-1" d="m52.93,715.74l-2.4-3.45c3.7-2.57,369.99-258.27,407.65-368.67l1.32-3.87,78.35,109.49-3.41,2.45-73.66-102.94c-44.59,113.42-392.88,356.58-407.84,366.99Z"/>
  <path class="cls-1" d="m747.16,547.79l-1.7-3.85c80.94-35.72,203.13-90.25,208-94.06l1.19,1.53,2.29-.68c.75,2.53.93,3.13-105.23,50.6-51.64,23.1-104.04,46.22-104.56,46.46Z"/>
  <rect class="cls-1" x="794.51" y="568.83" width="189.89" height="4.2" transform="translate(-119.04 254.67) rotate(-15.28)"/>
</svg>