<svg width="48" height="48" viewBox="0 0 48 48" fill="none" xmlns="http://www.w3.org/2000/svg">
<rect width="48" height="48" rx="24" fill="black"/>
<path d="M23.9948 13.3425C27.4667 13.3425 27.8742 13.358 29.2464 13.4199C30.5155 13.4767 31.2016 13.6882 31.6607 13.8688C32.2694 14.1062 32.7028 14.3848 33.1567 14.8389C33.6107 15.2929 33.8944 15.7263 34.1266 16.3352C34.302 16.7944 34.5187 17.4807 34.5754 18.75C34.6373 20.1224 34.6528 20.5301 34.6528 24.0026C34.6528 27.4751 34.6373 27.8827 34.5754 29.2552C34.5187 30.5245 34.3071 31.2108 34.1266 31.67C33.8893 32.2788 33.6107 32.7122 33.1567 33.1663C32.7028 33.6204 32.2694 33.9041 31.6607 34.1363C31.2016 34.3118 30.5155 34.5285 29.2464 34.5852C27.8742 34.6472 27.4667 34.6626 23.9948 34.6626C20.523 34.6626 20.1155 34.6472 18.7433 34.5852C17.4742 34.5285 16.7881 34.3169 16.329 34.1363C15.7202 33.899 15.2869 33.6204 14.8329 33.1663C14.379 32.7122 14.0952 32.2788 13.8631 31.67C13.6877 31.2108 13.471 30.5245 13.4143 29.2552C13.3524 27.8827 13.3369 27.4751 13.3369 24.0026C13.3369 20.5301 13.3524 20.1224 13.4143 18.75C13.471 17.4807 13.6825 16.7944 13.8631 16.3352C14.1004 15.7263 14.379 15.2929 14.8329 14.8389C15.2869 14.3848 15.7202 14.101 16.329 13.8688C16.7881 13.6934 17.4742 13.4767 18.7433 13.4199C20.1155 13.3528 20.5282 13.3425 23.9948 13.3425ZM23.9948 11C20.4663 11 20.0226 11.0155 18.6349 11.0774C17.2524 11.1393 16.3083 11.3612 15.4829 11.6811C14.6266 12.0113 13.9044 12.4602 13.1821 13.1826C12.4599 13.9049 12.0163 14.6325 11.681 15.4838C11.3611 16.3094 11.1393 17.2536 11.0774 18.6416C11.0155 20.0244 11 20.4681 11 23.9974C11 27.5267 11.0155 27.9704 11.0774 29.3584C11.1393 30.7412 11.3611 31.6855 11.681 32.5162C12.0111 33.3727 12.4599 34.0951 13.1821 34.8174C13.9044 35.5398 14.6317 35.9835 15.4829 36.3189C16.3083 36.6388 17.2524 36.8607 18.6401 36.9226C20.0278 36.9845 20.4663 37 24 37C27.5337 37 27.9722 36.9845 29.3599 36.9226C30.7425 36.8607 31.6865 36.6388 32.5171 36.3189C33.3734 35.9887 34.0956 35.5398 34.8179 34.8174C35.5401 34.0951 35.9837 33.3675 36.319 32.5162C36.6389 31.6906 36.8607 30.7464 36.9226 29.3584C36.9845 27.9704 37 27.5319 37 23.9974C37 20.463 36.9845 20.0244 36.9226 18.6364C36.8607 17.2536 36.6389 16.3094 36.319 15.4787C35.9889 14.6221 35.5401 13.8998 34.8179 13.1774C34.0956 12.4551 33.3683 12.0113 32.5171 11.6759C31.6917 11.356 30.7476 11.1342 29.3599 11.0722C27.9671 11.0155 27.5234 11 23.9948 11Z" fill="white"/>
<path d="M24 17C20.1376 17 17 20.1321 17 24C17 27.8679 20.1321 31 24 31C27.8679 31 31 27.8679 31 24C31 20.1321 27.8679 17 24 17ZM24 28.5386C21.49 28.5386 19.456 26.5046 19.456 23.9946C19.456 21.4845 21.49 19.4505 24 19.4505C26.51 19.4505 28.544 21.4845 28.544 23.9946C28.544 26.5046 26.51 28.5386 24 28.5386Z" fill="white"/>
<path d="M30.5 18C31.3284 18 32 17.3284 32 16.5C32 15.6716 31.3284 15 30.5 15C29.6716 15 29 15.6716 29 16.5C29 17.3284 29.6716 18 30.5 18Z" fill="white"/>
</svg>
