<svg width="518" height="408" viewBox="0 0 518 408" fill="none" xmlns="http://www.w3.org/2000/svg">
<path d="M276.983 407.789L275.267 406.211C279.144 401.983 370.967 302.967 433.522 331.011L432.567 333.139C371.522 305.783 277.922 406.767 276.983 407.789Z" fill="#037486"/>
<path d="M198.706 401.789L196.917 400.289C197.261 399.883 231.817 358.928 281.928 324.939C328.289 293.494 397.833 261.717 465.844 288.983L464.978 291.15C397.922 264.278 329.167 295.728 283.283 326.839C233.428 360.644 199.05 401.378 198.706 401.789Z" fill="#037486"/>
<path d="M136.15 376.6L134.533 374.916C135.061 374.405 188.394 323.422 258.556 282.405C323.456 244.461 416.45 207.528 490.917 247.055L489.822 249.116C416.317 210.105 324.15 246.772 259.772 284.4C189.844 325.278 136.683 376.094 136.156 376.6H136.15Z" fill="#037486"/>
<path d="M93.4389 347.044L91.8055 345.378C92.3278 344.867 144.856 293.894 222.039 250.2C293.339 209.833 400.872 167.594 508.25 195.578L507.661 197.839C401.056 170.05 294.15 212.067 223.239 252.205C146.306 295.75 93.9611 346.539 93.4389 347.044Z" fill="#037486"/>
<path d="M53.6166 306.461L51.8833 304.895C52.4166 304.306 105.756 245.756 168.444 223.156C169.617 222.728 286.139 179.834 305.789 131.306L320.311 86.978L418.572 186.772L416.906 188.411L321.339 91.3502L307.989 132.111C287.917 181.672 174.083 223.595 169.244 225.356C107.111 247.756 54.15 305.878 53.6222 306.461H53.6166Z" fill="#037486"/>
<path d="M25.1444 262.505L23.811 260.589C26.2888 258.867 271.467 88.011 274.961 47.561L275.361 42.8999L310.172 124.489L308.022 125.405L276.472 51.4499C260.805 98.2777 35.011 255.639 25.1444 262.5V262.505Z" fill="#037486"/>
<path d="M1.33333 208.883L0 206.967C2.05556 205.539 205.55 63.4833 226.472 2.15L227.206 0L270.733 60.8278L268.839 62.1889L227.917 5C203.144 68.0111 9.65 203.1 1.33889 208.883H1.33333Z" fill="#037486"/>
<path d="M387.017 115.578L386.072 113.439C431.039 93.5942 498.922 63.2998 501.628 61.1831L502.289 62.0331L503.561 61.6553C503.978 63.0609 504.078 63.3942 445.1 89.7664C416.411 102.6 387.3 115.444 387.011 115.578H387.017Z" fill="#037486"/>
<path d="M516.632 113.454L414.867 141.255L415.482 143.506L517.247 115.705L516.632 113.454Z" fill="#037486"/>
</svg>
