<svg width="680" height="120" viewBox="0 0 680 120" fill="none" xmlns="http://www.w3.org/2000/svg">
<path d="M183.323 35.51H195.193V88.54H225.283V98.96H183.312V35.51H183.323Z" fill="#037485"/>
<path d="M267.252 54.6799C270.332 57.1899 271.872 61.0999 271.872 66.4199V98.9599H260.812V90.6199H260.362C260.122 91.7099 259.392 92.9799 258.182 94.4299C256.972 95.8799 255.222 97.1499 252.922 98.2399C250.622 99.3299 247.872 99.8699 244.672 99.8699C240.382 99.8699 236.782 98.7999 233.882 96.6499C230.982 94.5099 229.532 91.2599 229.532 86.9099C229.532 82.5599 230.982 79.4199 233.882 77.4799C236.782 75.5499 240.712 74.25 245.662 73.58L254.912 72.3099C257.022 72.0699 258.452 71.6299 259.172 70.9999C259.892 70.3699 260.262 69.3499 260.262 67.9599V66.9599C260.262 64.1799 259.552 62.2499 258.132 61.1599C256.712 60.0699 254.642 59.5299 251.922 59.5299C246.122 59.5299 243.222 61.7699 243.222 66.2399V66.7799L232.252 66.9599V65.1499C232.252 55.6599 238.962 50.9199 252.372 50.9199C259.202 50.9199 264.152 52.1699 267.242 54.6799H267.252ZM260.272 76.8399C260.032 77.3199 259.532 77.6899 258.772 77.9299C258.012 78.1699 256.822 78.4099 255.192 78.6499L248.482 79.5599C245.942 79.9799 244.052 80.6499 242.822 81.5499C241.582 82.4599 240.962 83.76 240.962 85.45C240.962 87.14 241.592 88.6199 242.862 89.7099C244.132 90.7999 246.092 91.3399 248.752 91.3399C251.232 91.3399 253.332 90.8699 255.052 89.9399C256.772 88.9999 258.072 87.8699 258.952 86.5399C259.832 85.2099 260.272 83.9399 260.272 82.7299V76.8399Z" fill="#037485"/>
<path d="M311.573 51.92V61.71C310.183 61.53 308.973 61.44 307.943 61.44C303.773 61.44 300.363 62.72 297.703 65.29C295.043 67.86 293.713 71.77 293.713 77.03V98.96H282.113V51.83H293.713V63.07H293.983C294.833 59.63 296.433 56.83 298.783 54.69C301.143 52.54 304.193 51.47 307.943 51.47C309.273 51.47 310.483 51.62 311.573 51.92Z" fill="#037485"/>
<path d="M351.273 54.6799C354.353 57.1899 355.893 61.0999 355.893 66.4199V98.9599H344.833V90.6199H344.383C344.143 91.7099 343.413 92.9799 342.203 94.4299C340.993 95.8799 339.243 97.1499 336.943 98.2399C334.643 99.3299 331.893 99.8699 328.693 99.8699C324.403 99.8699 320.803 98.7999 317.903 96.6499C315.003 94.5099 313.552 91.2599 313.552 86.9099C313.552 82.5599 315.003 79.4199 317.903 77.4799C320.803 75.5499 324.732 74.25 329.682 73.58L338.932 72.3099C341.042 72.0699 342.473 71.6299 343.193 70.9999C343.923 70.3699 344.283 69.3499 344.283 67.9599V66.9599C344.283 64.1799 343.573 62.2499 342.153 61.1599C340.733 60.0699 338.663 59.5299 335.943 59.5299C330.143 59.5299 327.242 61.7699 327.242 66.2399V66.7799L316.273 66.9599V65.1499C316.273 55.6599 322.983 50.9199 336.393 50.9199C343.223 50.9199 348.173 52.1699 351.263 54.6799H351.273ZM344.292 76.8399C344.052 77.3199 343.552 77.6899 342.792 77.9299C342.032 78.1699 340.843 78.4099 339.213 78.6499L332.503 79.5599C329.963 79.9799 328.073 80.6499 326.833 81.5499C325.593 82.4599 324.972 83.76 324.972 85.45C324.972 87.14 325.602 88.6199 326.872 89.7099C328.142 90.7999 330.103 91.3399 332.763 91.3399C335.243 91.3399 337.342 90.8699 339.062 89.9399C340.783 88.9999 342.083 87.8699 342.963 86.5399C343.833 85.2099 344.273 83.9399 344.273 82.7299V76.8399H344.292Z" fill="#037485"/>
<path d="M367.323 35.51H372.222V75.48L407.302 35.51H413.283L390.263 62.16L415.372 98.96H409.482L386.643 65.88L372.232 82.38V98.97H367.333V35.52L367.323 35.51Z" fill="#037485"/>
<path d="M463.493 94.7V98.9599H460.773C455.333 98.9599 453.073 96.5999 453.253 91.1599V89.5299C450.443 95.2399 444.913 99.4999 435.583 99.4999C426.253 99.4999 419.363 94.5199 419.363 86.3599C419.363 77.7499 425.703 72.6699 437.493 72.6699H453.083V68.6799C453.083 61.0699 448.193 56.5299 439.573 56.5299C431.773 56.5299 426.883 60.2499 425.703 65.8699H421.083C422.263 57.5299 429.243 52.45 439.753 52.45C451.263 52.45 457.703 58.3399 457.703 68.8599V90.2499C457.703 93.7799 459.063 94.6899 461.783 94.6899H463.503L463.493 94.7ZM453.073 76.6599H437.123C428.603 76.6599 424.073 80.0099 424.073 86.0899C424.073 91.7999 428.603 95.52 435.943 95.52C446.823 95.52 453.073 89.1799 453.073 80.3799V76.6599Z" fill="#037485"/>
<path d="M473.093 57.26H464.393V53H473.093V40.13H477.713V53H490.133V57.26H477.713V88.17C477.713 92.88 479.433 94.7 484.243 94.7H490.593V98.96H483.883C476.083 98.96 473.093 95.61 473.093 88.26V57.26Z" fill="#037485"/>
<path d="M494.482 75.66C494.482 62.06 503.092 52.46 515.692 52.46C528.292 52.46 536.452 60.44 536.902 74.12C536.902 74.66 536.812 75.39 536.812 76.02H499.282V76.84C499.462 87.54 505.902 95.33 516.142 95.33C523.662 95.33 529.742 90.89 531.552 83.73H536.262C534.262 92.98 526.562 99.5 516.502 99.5C503.452 99.5 494.472 90.07 494.472 75.66H494.482ZM531.912 72.12C531.192 62.06 524.752 56.53 515.782 56.53C507.352 56.53 500.372 62.78 499.652 72.12H531.922H531.912Z" fill="#037485"/>
<path d="M567.273 53V57.44H563.922C553.132 57.44 550.693 66.32 550.693 75.66V98.95H546.073V52.99H550.062L550.783 62.15C552.683 57.07 556.313 52.99 564.833 52.99H567.283L567.273 53Z" fill="#037485"/>
<path d="M573.252 40.04C573.252 38.14 574.702 36.78 576.512 36.78C578.322 36.78 579.772 38.14 579.772 40.04C579.772 41.94 578.322 43.3 576.512 43.3C574.702 43.3 573.252 41.94 573.252 40.04ZM574.162 53.0001H578.782V98.96H574.162V53.0001Z" fill="#037485"/>
<path d="M628.993 73.22V98.96H624.373V73.4C624.373 62.52 619.023 56.72 610.143 56.72C600.353 56.72 594.283 64.33 594.283 76.3V98.96H589.663V53H593.653L594.373 62.79C597.003 56.81 602.443 52.46 610.873 52.46C621.293 52.46 629.003 58.71 629.003 73.22H628.993Z" fill="#037485"/>
<path d="M636.792 75.66C636.792 62.06 645.402 52.46 658.002 52.46C670.602 52.46 678.762 60.44 679.212 74.12C679.212 74.66 679.122 75.39 679.122 76.02H641.592V76.84C641.772 87.54 648.212 95.33 658.452 95.33C665.972 95.33 672.052 90.89 673.862 83.73H678.572C676.572 92.98 668.872 99.5 658.812 99.5C645.762 99.5 636.782 90.07 636.782 75.66H636.792ZM674.222 72.12C673.502 62.06 667.062 56.53 658.092 56.53C649.662 56.53 642.682 62.78 641.962 72.12H674.232H674.222Z" fill="#037485"/>
<path d="M129.902 68.97H117.242C113.232 68.97 109.592 66.64 107.922 62.99L81.7923 6.09998C80.0823 2.37998 76.3723 0 72.2823 0H45.5123C41.4023 0 37.6623 2.41 35.9723 6.16L0.502325 84.68C-0.197675 86.23 -0.167669 88.02 0.602331 89.54L14.3823 117.11C15.1923 118.72 16.8423 119.74 18.6423 119.74H129.922C133.232 119.74 135.912 117.06 135.912 113.75V74.95C135.912 71.64 133.232 68.96 129.922 68.96L129.902 68.97ZM42.0023 32.69L48.9423 18.94C49.4323 17.98 50.4223 17.37 51.5023 17.37H65.2523C66.3523 17.37 67.3623 18 67.8423 19L74.3923 32.7C74.6223 33.19 74.2723 33.75 73.7323 33.75H42.6723C42.1223 33.75 41.7723 33.17 42.0123 32.68L42.0023 32.69ZM26.6723 66.78L29.4423 56.31C30.1523 53.63 32.5823 51.76 35.3623 51.76H81.4723C84.3423 51.76 86.8223 53.75 87.4423 56.54L89.7423 66.81C89.8723 67.41 89.4223 67.98 88.8123 67.98H27.6123C26.9823 67.98 26.5223 67.38 26.6823 66.78H26.6723ZM118.372 100.02C118.372 101.28 117.352 102.29 116.102 102.29L26.8723 102.08C25.1923 102.08 23.6623 101.13 22.9023 99.63L17.7623 89.47C17.0023 87.96 18.0923 86.18 19.7923 86.18H116.112C117.362 86.18 118.382 87.2 118.382 88.45V100.02H118.372Z" fill="#037485"/>
</svg>
