<?xml version="1.0" encoding="UTF-8"?>
<svg id="Camada_1" data-name="Camada 1" xmlns="http://www.w3.org/2000/svg" viewBox="0 0 1080 1080">
  <g>
    <path d="m382.39,515.41h11.87v53.03h30.09v10.42h-41.97v-63.45Z"/>
    <path d="m466.32,534.58c3.08,2.51,4.62,6.42,4.62,11.74v32.54h-11.06v-8.34h-.45c-.24,1.09-.97,2.36-2.18,3.81-1.21,1.45-2.96,2.72-5.26,3.81-2.3,1.09-5.05,1.63-8.25,1.63-4.29,0-7.89-1.07-10.79-3.22-2.9-2.14-4.35-5.39-4.35-9.74s1.45-7.49,4.35-9.43c2.9-1.93,6.83-3.23,11.78-3.9l9.25-1.27c2.11-.24,3.54-.68,4.26-1.31.72-.63,1.09-1.65,1.09-3.04v-1c0-2.78-.71-4.71-2.13-5.8-1.42-1.09-3.49-1.63-6.21-1.63-5.8,0-8.7,2.24-8.7,6.71v.54l-10.97.18v-1.81c0-9.49,6.71-14.23,20.12-14.23,6.83,0,11.78,1.25,14.87,3.76Zm-6.98,22.16c-.24.48-.74.85-1.5,1.09-.76.24-1.95.48-3.58.72l-6.71.91c-2.54.42-4.43,1.09-5.66,1.99-1.24.91-1.86,2.21-1.86,3.9s.63,3.17,1.9,4.26c1.27,1.09,3.23,1.63,5.89,1.63,2.48,0,4.58-.47,6.3-1.4,1.72-.94,3.02-2.07,3.9-3.4.88-1.33,1.32-2.6,1.32-3.81v-5.89Z"/>
    <path d="m510.64,531.82v9.79c-1.39-.18-2.6-.27-3.63-.27-4.17,0-7.58,1.28-10.24,3.85-2.66,2.57-3.99,6.48-3.99,11.74v21.93h-11.6v-47.13h11.6v11.24h.27c.85-3.44,2.45-6.24,4.8-8.38,2.36-2.15,5.41-3.22,9.16-3.22,1.33,0,2.54.15,3.63.45Z"/>
    <path d="m550.35,534.58c3.08,2.51,4.62,6.42,4.62,11.74v32.54h-11.06v-8.34h-.45c-.24,1.09-.97,2.36-2.18,3.81-1.21,1.45-2.96,2.72-5.26,3.81-2.3,1.09-5.05,1.63-8.25,1.63-4.29,0-7.89-1.07-10.79-3.22-2.9-2.14-4.35-5.39-4.35-9.74s1.45-7.49,4.35-9.43c2.9-1.93,6.83-3.23,11.78-3.9l9.25-1.27c2.11-.24,3.54-.68,4.26-1.31.73-.63,1.09-1.65,1.09-3.04v-1c0-2.78-.71-4.71-2.13-5.8-1.42-1.09-3.49-1.63-6.21-1.63-5.8,0-8.7,2.24-8.7,6.71v.54l-10.97.18v-1.81c0-9.49,6.71-14.23,20.12-14.23,6.83,0,11.78,1.25,14.87,3.76Zm-6.98,22.16c-.24.48-.74.85-1.5,1.09-.76.24-1.95.48-3.58.72l-6.71.91c-2.54.42-4.43,1.09-5.67,1.99-1.24.91-1.86,2.21-1.86,3.9s.63,3.17,1.9,4.26c1.27,1.09,3.23,1.63,5.89,1.63,2.48,0,4.58-.47,6.3-1.4s3.02-2.07,3.9-3.4c.87-1.33,1.31-2.6,1.31-3.81v-5.89Z"/>
    <path d="m566.39,515.41h4.9v39.97l35.08-39.97h5.98l-23.02,26.65,25.11,36.8h-5.89l-22.84-33.08-14.41,16.5v16.59h-4.9v-63.45Z"/>
    <path d="m662.56,574.6v4.26h-2.72c-5.44,0-7.7-2.36-7.52-7.8v-1.63c-2.81,5.71-8.34,9.97-17.67,9.97s-16.22-4.98-16.22-13.14c0-8.61,6.34-13.69,18.13-13.69h15.59v-3.99c0-7.61-4.89-12.15-13.51-12.15-7.8,0-12.69,3.72-13.87,9.34h-4.62c1.18-8.34,8.16-13.42,18.67-13.42,11.51,0,17.95,5.89,17.95,16.41v21.39c0,3.53,1.36,4.44,4.08,4.44h1.72Zm-10.42-18.04h-15.95c-8.52,0-13.05,3.35-13.05,9.43,0,5.71,4.53,9.43,11.87,9.43,10.88,0,17.13-6.34,17.13-15.14v-3.72Z"/>
    <path d="m672.17,537.17h-8.7v-4.26h8.7v-12.87h4.62v12.87h12.42v4.26h-12.42v30.91c0,4.71,1.72,6.53,6.53,6.53h6.35v4.26h-6.71c-7.8,0-10.79-3.35-10.79-10.7v-31Z"/>
    <path d="m693.56,555.57c0-13.6,8.61-23.2,21.21-23.2s20.76,7.98,21.21,21.66c0,.54-.09,1.27-.09,1.9h-37.53v.82c.18,10.7,6.62,18.49,16.86,18.49,7.52,0,13.6-4.44,15.41-11.6h4.71c-2,9.25-9.7,15.77-19.76,15.77-13.05,0-22.03-9.43-22.03-23.84Zm37.43-3.54c-.72-10.06-7.16-15.59-16.13-15.59-8.43,0-15.41,6.25-16.13,15.59h32.27Z"/>
    <path d="m766.34,532.91v4.44h-3.35c-10.79,0-13.23,8.88-13.23,18.22v23.29h-4.62v-45.96h3.99l.72,9.16c1.9-5.08,5.53-9.16,14.05-9.16h2.45Z"/>
    <path d="m772.32,519.94c0-1.9,1.45-3.26,3.26-3.26s3.26,1.36,3.26,3.26-1.45,3.26-3.26,3.26-3.26-1.36-3.26-3.26Zm.91,12.96h4.62v45.96h-4.62v-45.96Z"/>
    <path d="m828.07,553.12v25.74h-4.62v-25.56c0-10.88-5.35-16.68-14.23-16.68-9.79,0-15.86,7.61-15.86,19.58v22.66h-4.62v-45.96h3.99l.72,9.79c2.63-5.98,8.07-10.33,16.5-10.33,10.42,0,18.13,6.25,18.13,20.76Z"/>
    <path d="m835.86,555.57c0-13.6,8.61-23.2,21.21-23.2s20.76,7.98,21.21,21.66c0,.54-.09,1.27-.09,1.9h-37.53v.82c.18,10.7,6.62,18.49,16.86,18.49,7.52,0,13.6-4.44,15.41-11.6h4.71c-2,9.25-9.7,15.77-19.76,15.77-13.05,0-22.03-9.43-22.03-23.84Zm37.43-3.54c-.72-10.06-7.16-15.59-16.13-15.59-8.43,0-15.41,6.25-16.13,15.59h32.27Z"/>
  </g>
  <path d="m328.97,548.88h-12.66c-4.01,0-7.65-2.33-9.32-5.98l-26.13-56.89c-1.71-3.72-5.42-6.1-9.51-6.1h-26.77c-4.11,0-7.85,2.41-9.54,6.16l-35.47,78.52c-.7,1.55-.67,3.34.1,4.86l13.78,27.57c.81,1.61,2.46,2.63,4.26,2.63h111.28c3.31,0,5.99-2.68,5.99-5.99v-38.8c0-3.31-2.68-5.99-5.99-5.99Zm-87.9-36.28l6.94-13.75c.49-.96,1.48-1.57,2.56-1.57h13.75c1.1,0,2.11.63,2.59,1.63l6.55,13.7c.23.49-.12,1.05-.66,1.05h-31.06c-.55,0-.9-.58-.66-1.07Zm-15.33,34.09l2.77-10.47c.71-2.68,3.14-4.55,5.92-4.55h46.11c2.87,0,5.35,1.99,5.97,4.78l2.3,10.27c.13.6-.32,1.17-.93,1.17h-61.2c-.63,0-1.09-.6-.93-1.2Zm91.7,33.24c0,1.26-1.02,2.27-2.27,2.27l-89.23-.21c-1.68,0-3.21-.95-3.97-2.45l-5.14-10.16c-.76-1.51.33-3.29,2.03-3.29h96.32c1.25,0,2.27,1.02,2.27,2.27v11.57Z"/>
</svg>