<svg width="48" height="48" viewBox="0 0 48 48" fill="none" xmlns="http://www.w3.org/2000/svg">
<rect width="48" height="48" rx="24" fill="black"/>
<path d="M29.6361 20.7464C31.3724 21.9919 33.4994 22.7248 35.7967 22.7248V18.2884C35.3619 18.2885 34.9283 18.243 34.5029 18.1525V21.6446C32.2058 21.6446 30.0791 20.9118 28.3424 19.6663V28.7197C28.3424 33.2487 24.684 36.9199 20.1713 36.9199C18.4876 36.9199 16.9226 36.409 15.6226 35.5329C17.1063 37.0554 19.1756 37.9999 21.4648 37.9999C25.9777 37.9999 29.6363 34.3287 29.6363 29.7996V20.7464H29.6361V20.7464ZM31.2321 16.2706C30.3448 15.2977 29.7622 14.0405 29.6361 12.6505V12.0799H28.4101C28.7187 13.8465 29.7713 15.3558 31.2321 16.2706ZM18.4768 32.0575C17.981 31.4051 17.7131 30.6071 17.7143 29.7866C17.7143 27.7152 19.3877 26.0357 21.4521 26.0357C21.8368 26.0356 22.2193 26.0947 22.5859 26.2115V21.6759C22.1574 21.617 21.725 21.592 21.2927 21.6012V25.1314C20.9258 25.0147 20.5432 24.9554 20.1583 24.9557C18.0939 24.9557 16.4207 26.6351 16.4207 28.7067C16.4207 30.1715 17.257 31.4397 18.4768 32.0575Z" fill="#FF004F"/>
<path d="M28.3424 19.6662C30.0791 20.9117 32.2058 21.6445 34.5029 21.6445V18.1524C33.2207 17.8784 32.0856 17.2059 31.2321 16.2706C29.7712 15.3557 28.7187 13.8464 28.4101 12.0799H25.1897V29.7994C25.1824 31.8651 23.5119 33.5378 21.4519 33.5378C20.238 33.5378 19.1595 32.9571 18.4765 32.0575C17.2568 31.4397 16.4204 30.1714 16.4204 28.7068C16.4204 26.6353 18.0937 24.9558 20.1581 24.9558C20.5537 24.9558 20.9349 25.0176 21.2925 25.1315V21.6013C16.8592 21.6932 13.2937 25.3285 13.2937 29.7995C13.2937 32.0314 14.1816 34.0547 15.6226 35.533C16.9227 36.409 18.4877 36.92 20.1714 36.92C24.6841 36.92 28.3424 33.2486 28.3424 28.7197V19.6662H28.3424Z" fill="white"/>
<path d="M34.5029 18.1525V17.2083C33.3466 17.2101 32.2131 16.8851 31.2321 16.2706C32.1005 17.2247 33.244 17.8826 34.5029 18.1525ZM28.4101 12.08C28.3806 11.9112 28.358 11.7412 28.3423 11.5706V11H23.8958V28.7197C23.8887 30.7851 22.2183 32.4578 20.1581 32.4578C19.5533 32.4578 18.9822 32.3137 18.4765 32.0577C19.1595 32.9572 20.2379 33.5378 21.4519 33.5378C23.5117 33.5378 25.1824 31.8653 25.1896 29.7996V12.08H28.4101ZM21.2927 21.6013V20.5961C20.9211 20.5452 20.5465 20.5196 20.1715 20.5198C15.6584 20.5197 12 24.1911 12 28.7197C12 31.5589 13.4378 34.061 15.6227 35.5329C14.1816 34.0546 13.2938 32.0313 13.2938 29.7995C13.2938 25.3286 16.8591 21.6933 21.2927 21.6013Z" fill="#00F2EA"/>
</svg>
